<mxfile host="app.diagrams.net" modified="2021-04-03T08:52:38.041Z" agent="5.0 (Macintosh; Intel Mac OS X 10_15_6) AppleWebKit/605.1.15 (KHTML, like Gecko) Version/14.0.3 Safari/605.1.15" etag="-_u1iuN_NkG4XIcA-qzn" version="14.5.6" type="github" pages="2">
  <diagram id="GF7U1PxuMcIbTAeL1bwN" name="Classes">
    <mxGraphModel dx="1014" dy="742" grid="1" gridSize="10" guides="1" tooltips="1" connect="1" arrows="1" fold="1" page="1" pageScale="1" pageWidth="850" pageHeight="1100" math="0" shadow="0">
      <root>
        <mxCell id="0" />
        <mxCell id="1" parent="0" />
        <UserObject label="ParseDefinitionEntry" lucidchartObjectId="U2H-7nr1POGL" id="C1s8JPBl7vQQ6bppYc5R-1">
          <mxCell style="html=1;overflow=block;blockSpacing=1;whiteSpace=wrap;;whiteSpace=wrap;fontSize=11;fontColor=#333333;spacing=9;strokeColor=#5e5e5e;strokeOpacity=100;rounded=1;absoluteArcSize=1;arcSize=9;strokeWidth=2;" parent="1" vertex="1">
            <mxGeometry x="90" y="310" width="120" height="90" as="geometry" />
          </mxCell>
        </UserObject>
        <UserObject label="ParseDefinition" lucidchartObjectId="U2H-xL2M04fB" id="C1s8JPBl7vQQ6bppYc5R-2">
          <mxCell style="html=1;overflow=block;blockSpacing=1;whiteSpace=wrap;;whiteSpace=wrap;fontSize=16;fontColor=#333333;spacing=9;strokeColor=#5e5e5e;strokeOpacity=100;rounded=1;absoluteArcSize=1;arcSize=9;strokeWidth=2;" parent="1" vertex="1">
            <mxGeometry x="90" y="90" width="120" height="90" as="geometry" />
          </mxCell>
        </UserObject>
        <UserObject label="StdLogEntry" lucidchartObjectId="U2H-4mlPft3K" id="C1s8JPBl7vQQ6bppYc5R-3">
          <mxCell style="html=1;overflow=block;blockSpacing=1;whiteSpace=wrap;;whiteSpace=wrap;fontSize=16;fontColor=#333333;spacing=9;strokeColor=#5e5e5e;strokeOpacity=100;rounded=1;absoluteArcSize=1;arcSize=9;strokeWidth=2;" parent="1" vertex="1">
            <mxGeometry x="645" y="285" width="120" height="90" as="geometry" />
          </mxCell>
        </UserObject>
        <UserObject label="GenericEntry" lucidchartObjectId="U2H-q0d7ACyj" id="C1s8JPBl7vQQ6bppYc5R-4">
          <mxCell style="html=1;overflow=block;blockSpacing=1;whiteSpace=wrap;;whiteSpace=wrap;fontSize=16;fontColor=#333333;spacing=9;strokeColor=#5e5e5e;strokeOpacity=100;rounded=1;absoluteArcSize=1;arcSize=9;strokeWidth=2;" parent="1" vertex="1">
            <mxGeometry x="550" y="590" width="120" height="90" as="geometry" />
          </mxCell>
        </UserObject>
        <UserObject label="" lucidchartObjectId="U2H-Jx7dwYqJ" id="C1s8JPBl7vQQ6bppYc5R-5">
          <mxCell style="html=1;jettySize=18;whiteSpace=wrap;fontSize=11;strokeColor=#5E5E5E;strokeWidth=2;rounded=1;arcSize=12;edgeStyle=orthogonalEdgeStyle;startArrow=diamond;startFill=0;;endArrow=none;;exitX=0.5;exitY=1.013;exitPerimeter=0;entryX=0.5;entryY=-0.012;entryPerimeter=0;" parent="1" source="C1s8JPBl7vQQ6bppYc5R-2" target="C1s8JPBl7vQQ6bppYc5R-1" edge="1">
            <mxGeometry width="100" height="100" relative="1" as="geometry">
              <Array as="points" />
            </mxGeometry>
          </mxCell>
        </UserObject>
        <mxCell id="C1s8JPBl7vQQ6bppYc5R-7" value="" style="html=1;overflow=block;blockSpacing=1;whiteSpace=wrap;strokeColor=none;fillColor=none;" parent="1" vertex="1">
          <mxGeometry x="760" y="590" width="120" height="90" as="geometry" />
        </mxCell>
        <mxCell id="C1s8JPBl7vQQ6bppYc5R-8" value="" style="part=1;whiteSpace=wrap;fontSize=16;fontColor=#333333;spacing=4;strokeColor=#5e5e5e;strokeOpacity=100;rounded=1;absoluteArcSize=1;arcSize=9;strokeWidth=2;" parent="C1s8JPBl7vQQ6bppYc5R-7" vertex="1">
          <mxGeometry x="12" width="108" height="81" as="geometry" />
        </mxCell>
        <mxCell id="C1s8JPBl7vQQ6bppYc5R-9" value="Self-Defined Entries" style="part=1;whiteSpace=wrap;fontSize=16;fontColor=#333333;whiteSpace=wrap;spacing=4;strokeColor=#5e5e5e;strokeOpacity=100;rounded=1;absoluteArcSize=1;arcSize=9;strokeWidth=2;" parent="C1s8JPBl7vQQ6bppYc5R-7" vertex="1">
          <mxGeometry y="9" width="108" height="81" as="geometry" />
        </mxCell>
        <UserObject label="StringParseFactory" lucidchartObjectId="U2H-WQcIoU4e" id="C1s8JPBl7vQQ6bppYc5R-11">
          <mxCell style="html=1;overflow=block;blockSpacing=1;whiteSpace=wrap;;whiteSpace=wrap;fontSize=11;fontColor=#333333;spacing=9;strokeColor=#5e5e5e;strokeOpacity=100;rounded=1;absoluteArcSize=1;arcSize=9;strokeWidth=2;" parent="1" vertex="1">
            <mxGeometry x="360" y="240" width="120" height="90" as="geometry" />
          </mxCell>
        </UserObject>
        <UserObject label="LogData" lucidchartObjectId="w4H-~2cmrp-e" id="C1s8JPBl7vQQ6bppYc5R-12">
          <mxCell style="html=1;overflow=block;blockSpacing=1;whiteSpace=wrap;;whiteSpace=wrap;fontSize=16;fontColor=#333333;spacing=9;strokeColor=#5e5e5e;strokeOpacity=100;rounded=1;absoluteArcSize=1;arcSize=9;strokeWidth=2;" parent="1" vertex="1">
            <mxGeometry x="645" y="60" width="120" height="90" as="geometry" />
          </mxCell>
        </UserObject>
        <UserObject label="" lucidchartObjectId="D4H-_0HRnadn" id="C1s8JPBl7vQQ6bppYc5R-13">
          <mxCell style="html=1;jettySize=18;whiteSpace=wrap;fontSize=11;strokeColor=#5E5E5E;strokeWidth=2;rounded=1;arcSize=12;edgeStyle=orthogonalEdgeStyle;startArrow=diamond;startFill=0;;endArrow=none;;exitX=0.5;exitY=1.013;exitPerimeter=0;entryX=0.5;entryY=-0.012;entryPerimeter=0;" parent="1" source="C1s8JPBl7vQQ6bppYc5R-12" target="C1s8JPBl7vQQ6bppYc5R-3" edge="1">
            <mxGeometry width="100" height="100" relative="1" as="geometry">
              <Array as="points" />
            </mxGeometry>
          </mxCell>
        </UserObject>
        <mxCell id="C1s8JPBl7vQQ6bppYc5R-14" value="Extends" style="endArrow=block;endSize=16;endFill=0;html=1;entryX=0.5;entryY=1;entryDx=0;entryDy=0;exitX=0.5;exitY=0;exitDx=0;exitDy=0;edgeStyle=orthogonalEdgeStyle;" parent="1" source="C1s8JPBl7vQQ6bppYc5R-4" target="C1s8JPBl7vQQ6bppYc5R-3" edge="1">
          <mxGeometry width="160" relative="1" as="geometry">
            <mxPoint x="600" y="580" as="sourcePoint" />
            <mxPoint x="720" y="410" as="targetPoint" />
          </mxGeometry>
        </mxCell>
        <mxCell id="C1s8JPBl7vQQ6bppYc5R-15" value="Extends" style="endArrow=block;endSize=16;endFill=0;html=1;exitX=0.5;exitY=0;exitDx=0;exitDy=0;edgeStyle=orthogonalEdgeStyle;entryX=0.5;entryY=1;entryDx=0;entryDy=0;" parent="1" source="C1s8JPBl7vQQ6bppYc5R-8" target="C1s8JPBl7vQQ6bppYc5R-3" edge="1">
          <mxGeometry width="160" relative="1" as="geometry">
            <mxPoint x="380" y="490" as="sourcePoint" />
            <mxPoint x="710" y="380" as="targetPoint" />
          </mxGeometry>
        </mxCell>
      </root>
    </mxGraphModel>
  </diagram>
  <diagram id="LirX-YWR1LI0kx1sx8zC" name="Processes">
    <mxGraphModel dx="1014" dy="742" grid="1" gridSize="10" guides="1" tooltips="1" connect="1" arrows="1" fold="1" page="1" pageScale="1" pageWidth="850" pageHeight="1100" math="0" shadow="0">
      <root>
        <mxCell id="dgaH53lybmkEFGB52cs7-0" />
        <mxCell id="dgaH53lybmkEFGB52cs7-1" parent="dgaH53lybmkEFGB52cs7-0" />
        <UserObject label="ParseDefinition" lucidchartObjectId="f5H-k79ewbjp" id="dgaH53lybmkEFGB52cs7-2">
          <mxCell style="html=1;overflow=block;blockSpacing=1;whiteSpace=wrap;;whiteSpace=wrap;fontSize=16.7;fontColor=#333333;spacing=9;strokeColor=#5e5e5e;strokeOpacity=100;rounded=1;absoluteArcSize=1;arcSize=9;strokeWidth=2.3;" vertex="1" parent="dgaH53lybmkEFGB52cs7-1">
            <mxGeometry x="345" y="105" width="120" height="90" as="geometry" />
          </mxCell>
        </UserObject>
        <UserObject label="StringParseFactory" lucidchartObjectId="f5H-pgM7QvhG" id="dgaH53lybmkEFGB52cs7-3">
          <mxCell style="html=1;overflow=block;blockSpacing=1;whiteSpace=wrap;;whiteSpace=wrap;fontSize=11.7;fontColor=#333333;spacing=9;strokeColor=#5e5e5e;strokeOpacity=100;rounded=1;absoluteArcSize=1;arcSize=9;strokeWidth=2.3;" vertex="1" parent="dgaH53lybmkEFGB52cs7-1">
            <mxGeometry x="585" y="240" width="120" height="90" as="geometry" />
          </mxCell>
        </UserObject>
        <UserObject label="Log Files" lucidchartObjectId="f5H-nbsuuZR." id="dgaH53lybmkEFGB52cs7-4">
          <mxCell style="html=1;overflow=block;blockSpacing=1;whiteSpace=wrap;shape=mxgraph.flowchart.multi-document;whiteSpace=wrap;fontSize=16.7;fontColor=#333333;spacing=3.8;strokeColor=#5e5e5e;strokeOpacity=100;rounded=1;absoluteArcSize=1;arcSize=9;strokeWidth=2.3;" vertex="1" parent="dgaH53lybmkEFGB52cs7-1">
            <mxGeometry x="345" y="345" width="120" height="90" as="geometry" />
          </mxCell>
        </UserObject>
        <UserObject label="" lucidchartObjectId="f5H-mhYPpiEp" id="dgaH53lybmkEFGB52cs7-5">
          <mxCell style="html=1;jettySize=18;whiteSpace=wrap;fontSize=13;strokeColor=#5E5E5E;strokeWidth=1.5;rounded=1;arcSize=12;edgeStyle=orthogonalEdgeStyle;startArrow=none;;endArrow=block;endFill=1;;exitX=1.009;exitY=0.5;exitPerimeter=0;entryX=-0.009;entryY=0.133;entryPerimeter=0;" edge="1" parent="dgaH53lybmkEFGB52cs7-1" source="dgaH53lybmkEFGB52cs7-2" target="dgaH53lybmkEFGB52cs7-3">
            <mxGeometry width="100" height="100" relative="1" as="geometry">
              <Array as="points" />
            </mxGeometry>
          </mxCell>
        </UserObject>
        <UserObject label="" lucidchartObjectId="f5H-idt3VtXY" id="dgaH53lybmkEFGB52cs7-6">
          <mxCell style="html=1;jettySize=18;whiteSpace=wrap;fontSize=13;strokeColor=#5E5E5E;strokeWidth=1.5;rounded=1;arcSize=12;edgeStyle=orthogonalEdgeStyle;startArrow=none;;endArrow=block;endFill=1;;exitX=1.009;exitY=0.502;exitPerimeter=0;entryX=-0.009;entryY=0.722;entryPerimeter=0;" edge="1" parent="dgaH53lybmkEFGB52cs7-1" source="dgaH53lybmkEFGB52cs7-4" target="dgaH53lybmkEFGB52cs7-3">
            <mxGeometry width="100" height="100" relative="1" as="geometry">
              <Array as="points" />
            </mxGeometry>
          </mxCell>
        </UserObject>
        <UserObject label="" lucidchartObjectId="f5H-7~_WlAFS" id="dgaH53lybmkEFGB52cs7-7">
          <mxCell style="html=1;jettySize=18;whiteSpace=wrap;fontSize=13;strokeColor=#5E5E5E;strokeWidth=1.5;rounded=1;arcSize=12;edgeStyle=orthogonalEdgeStyle;startArrow=none;;endArrow=block;endFill=1;;exitX=1.009;exitY=0.5;exitPerimeter=0;entryX=-0.009;entryY=0.5;entryPerimeter=0;" edge="1" parent="dgaH53lybmkEFGB52cs7-1" source="dgaH53lybmkEFGB52cs7-3" target="dgaH53lybmkEFGB52cs7-8">
            <mxGeometry width="100" height="100" relative="1" as="geometry">
              <Array as="points" />
            </mxGeometry>
          </mxCell>
        </UserObject>
        <UserObject label="LogData" lucidchartObjectId="V5H-gdT04YMy" id="dgaH53lybmkEFGB52cs7-8">
          <mxCell style="html=1;overflow=block;blockSpacing=1;whiteSpace=wrap;;whiteSpace=wrap;fontSize=16.7;fontColor=#333333;spacing=9;strokeColor=#5e5e5e;strokeOpacity=100;rounded=1;absoluteArcSize=1;arcSize=9;strokeWidth=2.3;" vertex="1" parent="dgaH53lybmkEFGB52cs7-1">
            <mxGeometry x="750" y="240" width="120" height="90" as="geometry" />
          </mxCell>
        </UserObject>
        <UserObject label="" lucidchartObjectId="25H--EiCk1pW" id="dgaH53lybmkEFGB52cs7-9">
          <mxCell style="html=1;jettySize=18;whiteSpace=wrap;fontSize=13;strokeColor=#5E5E5E;strokeWidth=1.5;rounded=1;arcSize=12;edgeStyle=orthogonalEdgeStyle;startArrow=none;;endArrow=none;;exitY=0.5;exitPerimeter=0;entryY=0.5;entryPerimeter=0;" edge="1" parent="dgaH53lybmkEFGB52cs7-1" source="dgaH53lybmkEFGB52cs7-8" target="dgaH53lybmkEFGB52cs7-8">
            <mxGeometry width="100" height="100" relative="1" as="geometry">
              <Array as="points">
                <mxPoint x="729" y="305" generated="1" />
                <mxPoint x="729" y="305" generated="1" />
              </Array>
            </mxGeometry>
          </mxCell>
        </UserObject>
        <UserObject label="Group By" lucidchartObjectId="G7H-W9nmE57i" id="dgaH53lybmkEFGB52cs7-10">
          <mxCell style="html=1;overflow=block;blockSpacing=1;whiteSpace=wrap;rounded=1;arcSize=50;whiteSpace=wrap;fontSize=16.7;fontColor=#333333;spacing=3.8;strokeColor=#7ab648;strokeOpacity=100;strokeWidth=2.3;" vertex="1" parent="dgaH53lybmkEFGB52cs7-1">
            <mxGeometry x="915" y="75" width="120" height="60" as="geometry" />
          </mxCell>
        </UserObject>
        <UserObject label="" lucidchartObjectId="27H-7oZmY7Sx" id="dgaH53lybmkEFGB52cs7-11">
          <mxCell style="html=1;jettySize=18;whiteSpace=wrap;fontSize=13;strokeColor=#7ab648;strokeOpacity=100;strokeWidth=1.5;rounded=1;arcSize=12;edgeStyle=orthogonalEdgeStyle;startArrow=none;;endArrow=block;endFill=1;;exitX=1.009;exitY=0.5;exitPerimeter=0;entryX=-0.009;entryY=0.5;entryPerimeter=0;" edge="1" parent="dgaH53lybmkEFGB52cs7-1" source="dgaH53lybmkEFGB52cs7-8" target="dgaH53lybmkEFGB52cs7-10">
            <mxGeometry width="100" height="100" relative="1" as="geometry">
              <Array as="points" />
            </mxGeometry>
          </mxCell>
        </UserObject>
        <mxCell id="dgaH53lybmkEFGB52cs7-12" value="GroupBy DefinitionEntry" style="text;html=1;resizable=0;labelBackgroundColor=#ffffff;align=center;verticalAlign=middle;fontStyle=1;fontColor=#333333;;fontSize=13.3;" vertex="1" parent="dgaH53lybmkEFGB52cs7-11">
          <mxGeometry x="0.13916990984672717" relative="1" as="geometry" />
        </mxCell>
        <UserObject label="Assertions" lucidchartObjectId="~7H-bdEOABoX" id="dgaH53lybmkEFGB52cs7-13">
          <mxCell style="html=1;overflow=block;blockSpacing=1;whiteSpace=wrap;rounded=1;arcSize=50;whiteSpace=wrap;fontSize=16.7;fontColor=#333333;spacing=3.8;strokeColor=#7ab648;strokeOpacity=100;strokeWidth=2.3;" vertex="1" parent="dgaH53lybmkEFGB52cs7-1">
            <mxGeometry x="915" y="451" width="120" height="60" as="geometry" />
          </mxCell>
        </UserObject>
        <UserObject label="" lucidchartObjectId="n8H-yEYkZyzU" id="dgaH53lybmkEFGB52cs7-14">
          <mxCell style="html=1;jettySize=18;whiteSpace=wrap;fontSize=13;strokeColor=#7ab648;strokeOpacity=100;strokeWidth=1.5;rounded=1;arcSize=12;edgeStyle=orthogonalEdgeStyle;startArrow=none;;endArrow=block;endFill=1;;exitX=1.009;exitY=0.5;exitPerimeter=0;entryX=-0.009;entryY=0.5;entryPerimeter=0;" edge="1" parent="dgaH53lybmkEFGB52cs7-1" source="dgaH53lybmkEFGB52cs7-8" target="dgaH53lybmkEFGB52cs7-13">
            <mxGeometry width="100" height="100" relative="1" as="geometry">
              <Array as="points" />
            </mxGeometry>
          </mxCell>
        </UserObject>
        <mxCell id="dgaH53lybmkEFGB52cs7-15" value="AssertBy DefinitionEntry Value" style="text;html=1;resizable=0;labelBackgroundColor=#ffffff;align=center;verticalAlign=middle;fontStyle=1;fontColor=#333333;;fontSize=13.3;" vertex="1" parent="dgaH53lybmkEFGB52cs7-14">
          <mxGeometry relative="1" as="geometry" />
        </mxCell>
        <UserObject label="CSV" lucidchartObjectId="Y9H-.ZgSRe0-" id="dgaH53lybmkEFGB52cs7-16">
          <mxCell style="html=1;overflow=block;blockSpacing=1;whiteSpace=wrap;shape=document;boundedLbl=1;whiteSpace=wrap;fontSize=16.7;fontColor=#333333;spacing=3.8;strokeColor=#7ab648;strokeOpacity=100;rounded=1;absoluteArcSize=1;arcSize=9;strokeWidth=2.3;" vertex="1" parent="dgaH53lybmkEFGB52cs7-1">
            <mxGeometry x="975" y="240" width="120" height="90" as="geometry" />
          </mxCell>
        </UserObject>
        <UserObject label="" lucidchartObjectId="19H-_OpXLo-T" id="dgaH53lybmkEFGB52cs7-17">
          <mxCell style="html=1;jettySize=18;whiteSpace=wrap;fontSize=13;strokeColor=#7ab648;strokeOpacity=100;strokeWidth=1.5;rounded=1;arcSize=12;edgeStyle=orthogonalEdgeStyle;startArrow=none;;endArrow=block;endFill=1;;exitX=1.009;exitY=0.5;exitPerimeter=0;entryX=-0.009;entryY=0.5;entryPerimeter=0;" edge="1" parent="dgaH53lybmkEFGB52cs7-1" source="dgaH53lybmkEFGB52cs7-8" target="dgaH53lybmkEFGB52cs7-16">
            <mxGeometry width="100" height="100" relative="1" as="geometry">
              <Array as="points" />
            </mxGeometry>
          </mxCell>
        </UserObject>
        <mxCell id="dgaH53lybmkEFGB52cs7-18" value="Export" style="text;html=1;resizable=0;labelBackgroundColor=#ffffff;align=center;verticalAlign=middle;fontStyle=1;fontColor=#333333;;fontSize=13.3;" vertex="1" parent="dgaH53lybmkEFGB52cs7-17">
          <mxGeometry x="0.22384428223844166" relative="1" as="geometry" />
        </mxCell>
        <UserObject label="JSON" lucidchartObjectId="P.H-3s7.fpRa" id="dgaH53lybmkEFGB52cs7-19">
          <mxCell style="html=1;overflow=block;blockSpacing=1;whiteSpace=wrap;shape=document;boundedLbl=1;whiteSpace=wrap;fontSize=16.7;fontColor=#333333;spacing=3.8;strokeColor=#7ab648;strokeOpacity=100;rounded=1;absoluteArcSize=1;arcSize=9;strokeWidth=2.3;" vertex="1" parent="dgaH53lybmkEFGB52cs7-1">
            <mxGeometry x="60" y="105" width="120" height="90" as="geometry" />
          </mxCell>
        </UserObject>
        <UserObject label="" lucidchartObjectId="c~H-oXjLPT8w" id="dgaH53lybmkEFGB52cs7-20">
          <mxCell style="html=1;jettySize=18;whiteSpace=wrap;fontSize=13;strokeColor=#7ab648;strokeOpacity=100;strokeWidth=1.5;rounded=1;arcSize=12;edgeStyle=orthogonalEdgeStyle;startArrow=block;startFill=1;;endArrow=none;;exitX=1.009;exitY=0.503;exitPerimeter=0;entryX=-0.009;entryY=0.5;entryPerimeter=0;" edge="1" parent="dgaH53lybmkEFGB52cs7-1" source="dgaH53lybmkEFGB52cs7-19" target="dgaH53lybmkEFGB52cs7-2">
            <mxGeometry width="100" height="100" relative="1" as="geometry">
              <Array as="points" />
            </mxGeometry>
          </mxCell>
        </UserObject>
        <mxCell id="dgaH53lybmkEFGB52cs7-21" value="Import" style="text;html=1;resizable=0;labelBackgroundColor=#ffffff;align=center;verticalAlign=middle;fontStyle=1;fontColor=#333333;;fontSize=13.3;" vertex="1" parent="dgaH53lybmkEFGB52cs7-20">
          <mxGeometry relative="1" as="geometry" />
        </mxCell>
      </root>
    </mxGraphModel>
  </diagram>
</mxfile>
